PathFileType	4	(X/Y/Z)	s11c0403.trc
DataRate	CameraRate	NumFrames	NumMarkers	Units	OrigDataRate	OrigDataStartFrame	OrigNumFrames
200	200	4	48	mm	200	250	2000
Frame#	Time	racr			lacr			c7			jug			rlel			rdr			llel			ldr			s2			lic			ric			lasi			rasi			rpsi			lpsi			rgt			lgt			rth1			rth2			rth3			rth4			rlfc			rmfc			rsh1			rsh2			rsh3			rsh4			rlmal			rcal			rtoe			rmt5			lth1			lth2			lth4			lth3			llfc			lmfc			llmal			lcal			lmt5			lsh1			lsh2			lsh3			lsh4			ltoe			SBIKE			LBIKE			RBIKE			
		X1	Y1	Z1	X2	Y2	Z2	X3	Y3	Z3	X4	Y4	Z4	X5	Y5	Z5	X6	Y6	Z6	X7	Y7	Z7	X8	Y8	Z8	X9	Y9	Z9	X10	Y10	Z10	X11	Y11	Z11	X12	Y12	Z12	X13	Y13	Z13	X14	Y14	Z14	X15	Y15	Z15	X16	Y16	Z16	X17	Y17	Z17	X18	Y18	Z18	X19	Y19	Z19	X20	Y20	Z20	X21	Y21	Z21	X22	Y22	Z22	X23	Y23	Z23	X24	Y24	Z24	X25	Y25	Z25	X26	Y26	Z26	X27	Y27	Z27	X28	Y28	Z28	X29	Y29	Z29	X30	Y30	Z30	X31	Y31	Z31	X32	Y32	Z32	X33	Y33	Z33	X34	Y34	Z34	X35	Y35	Z35	X36	Y36	Z36	X37	Y37	Z37	X38	Y38	Z38	X39	Y39	Z39	X40	Y40	Z40	X41	Y41	Z41	X42	Y42	Z42	X43	Y43	Z43	X44	Y44	Z44	X45	Y45	Z45	X46	Y46	Z46	X47	Y47	Z47	X48	Y48	Z48	
250	1.2500	413.786590	1434.145424	-114.197282	392.078959	1441.228849	-428.991367	296.972938	1559.491116	-268.943228	346.925534	1393.698537	-273.422077	556.201868	1189.763595	-54.279936	773.623269	972.001397	-78.260283	513.676138	1165.600928	-499.716059	773.384554	960.061827	-484.178659	-158.183245	1169.547078	-243.589955	36.572408	1231.490181	-453.766399	64.498573	1206.204268	-53.309255	87.620550	1163.927190	-417.650545	114.273768	1158.277245	-90.837684	-133.622452	1243.820411	-184.974908	-138.938652	1243.092540	-277.014647	19.982408	1033.667652	-40.688894	-14.659689	1105.560451	-470.614597	108.568603	919.096414	-41.009651	177.863751	863.867575	-54.989245	209.098325	784.266181	-74.625012	206.137386	886.996442	-63.987455	269.565496	698.045638	-95.183305	264.537093	680.753585	-220.721419	196.123893	556.195874	-76.932852	178.926755	471.208586	-93.513991	123.176330	403.895578	-92.933671	201.190000	463.292389	-125.337343	55.525071	284.392867	-104.488445	-9.936214	276.426676	-151.443066	262.172124	188.221784	-147.095275	189.196520	175.512459	-77.486554	127.420851	1059.658407	-492.925627	213.137097	1059.145636	-493.348047	224.557298	1092.868508	-481.472978	290.446109	1012.851446	-498.469350	422.518454	956.625004	-481.415672	441.966058	953.328529	-354.378647	219.707176	582.888203	-423.002239	157.726064	547.054912	-381.992494	350.129982	474.493283	-455.819673	365.816735	842.660299	-490.548923	351.168757	761.090789	-468.454791	295.459944	693.334413	-455.609300	380.563361	752.634466	-444.595528	449.517565	485.722623	-391.309916	-176.159913	971.589100	-168.804496	-17.979521	80.759029	-460.901316	-18.053721	80.825191	-61.990022	
251	1.2550	413.746670	1434.079607	-114.337020	391.989991	1441.276887	-429.140892	296.822599	1559.553914	-268.995546	346.765906	1393.708347	-273.543899	556.174249	1189.758042	-54.296215	773.611828	971.994327	-78.140486	513.494659	1165.522087	-499.778491	773.328171	960.073865	-484.158148	-158.340207	1169.512070	-243.482383	36.321272	1231.511961	-453.752286	64.367502	1206.243670	-53.249834	87.340782	1163.955978	-417.555605	114.158587	1158.301611	-90.750366	-133.801976	1243.829806	-184.842153	-139.108811	1243.043175	-276.894056	19.865418	1033.633727	-40.652422	-14.815686	1105.623459	-470.542472	108.546178	919.106573	-41.018974	177.883905	863.950978	-54.981233	209.176660	784.395865	-74.645866	206.145827	887.118396	-63.985800	269.682154	698.183215	-95.215784	264.661845	680.973441	-220.786462	196.266475	556.395083	-76.935687	179.031736	471.436007	-93.512941	123.102596	404.312620	-92.903156	201.258664	463.547517	-125.378926	55.505866	284.652339	-104.502053	-9.944106	276.894439	-151.462663	261.991816	188.210702	-147.096150	188.975384	175.618732	-77.483597	127.259081	1059.740337	-492.819518	212.979626	1059.177749	-493.245234	224.392546	1092.895487	-481.372286	290.278856	1013.008358	-498.672822	422.353562	956.534729	-481.266226	441.840877	953.274383	-354.246840	219.842105	582.660819	-422.959598	157.851752	546.788502	-382.006902	350.317324	474.351003	-455.787957	365.771193	842.555814	-490.446703	351.151498	760.986735	-468.384815	295.495926	693.128388	-455.567469	380.544085	752.518553	-444.530679	449.731081	485.641522	-391.339319	-176.141499	971.528311	-168.937741	-17.997170	80.764533	-460.885848	-18.048661	80.838243	-61.998806	
252	1.2600	413.703260	1434.031269	-114.470391	391.930014	1441.265736	-429.186031	296.679758	1559.574664	-269.096451	346.656448	1393.712112	-273.682894	556.153649	1189.746551	-54.267161	773.600143	972.002685	-78.007544	513.355169	1165.482182	-499.875741	773.270774	960.107700	-484.219229	-158.473420	1169.471185	-243.379536	36.047792	1231.513105	-453.672992	64.248768	1206.274206	-53.177613	87.121474	1163.986601	-417.459770	114.049622	1158.298074	-90.649223	-133.922683	1243.842702	-184.753646	-139.338501	1243.013998	-276.727227	19.781047	1033.623615	-40.613633	-15.002790	1105.658612	-470.442956	108.543133	919.143747	-41.017978	177.921433	864.039186	-54.978152	209.290634	784.527803	-74.701694	206.159474	887.251352	-63.929648	269.817181	698.376865	-95.236473	264.815775	681.128413	-220.818794	196.412986	556.588703	-76.947959	179.097117	471.593937	-93.529239	123.125023	404.615699	-92.934312	201.320356	463.778705	-125.374047	55.408817	284.950907	-104.472914	-10.018037	277.301255	-151.491778	261.771661	188.215224	-147.098980	188.730127	175.744794	-77.497752	127.109402	1059.790488	-492.724395	212.853862	1059.230150	-493.169199	224.268420	1092.909260	-481.277669	290.132071	1013.016178	-498.620611	422.184617	956.409697	-481.107627	441.701578	953.254708	-354.102109	219.999150	582.371320	-422.895049	158.022813	546.458048	-382.059559	350.592956	474.187939	-455.765282	365.725464	842.413750	-490.322438	351.180329	760.816437	-468.253811	295.588171	692.875663	-455.511503	380.573907	752.386533	-444.447107	449.999017	485.530574	-391.343911	-176.144932	971.515538	-168.992592	-17.985120	80.751445	-460.897268	-18.045938	80.818402	-61.975042	
253	1.2650	413.680108	1433.980496	-114.602117	391.813465	1441.242496	-429.299387	296.578696	1559.584945	-269.189377	346.570431	1393.701189	-273.799522	556.141167	1189.755362	-54.194392	773.599557	972.022541	-77.851644	513.252962	1165.459591	-499.944736	773.235544	960.124254	-484.232054	-158.614753	1169.431075	-243.298574	35.796641	1231.534762	-453.658969	64.107388	1206.285725	-53.132223	86.956641	1164.072493	-417.438888	113.956556	1158.296349	-90.586525	-134.004402	1243.832104	-184.680667	-139.567413	1243.014606	-276.560691	19.700845	1033.603809	-40.588398	-15.175835	1105.718589	-470.364947	108.562556	919.199681	-40.994053	177.958081	864.157792	-54.940572	209.446413	784.656071	-74.725873	206.221642	887.380338	-63.924700	270.012678	698.554550	-95.266765	265.079208	681.359642	-220.811037	196.586862	556.863761	-76.988769	179.164159	471.868854	-93.533585	123.127523	404.862314	-92.950160	201.381403	464.040435	-125.354355	55.289669	285.364076	-104.483665	-10.152672	277.836393	-151.480009	261.509478	188.240635	-147.072538	188.410108	175.920263	-77.491324	126.991782	1059.846355	-492.635426	212.745774	1059.248357	-493.063934	224.167728	1092.924000	-481.152143	289.972491	1013.016575	-498.494992	422.024965	956.276227	-480.936372	441.566367	953.123871	-353.945352	220.267598	582.039826	-422.881815	158.271501	546.062801	-382.055195	350.990653	473.949801	-455.725916	365.684455	842.241953	-490.183753	351.219862	760.627912	-468.183267	295.697125	692.600477	-455.438588	380.611718	752.235155	-444.349870	450.304624	485.407751	-391.357758	-176.044582	971.606437	-168.719962	-18.006023	80.761325	-460.884857	-18.049057	80.824480	-61.975598	
